<?xml version="1.0" encoding="UTF-8"?><svg id="uuid-839bf553-d831-41a9-8cb4-f54708bc6e84" xmlns="http://www.w3.org/2000/svg" viewBox="0 0 334.05 46.85"><text transform="translate(39.61 35.34)" font-family="Inter-Black, Inter" font-size="36" font-weight="800"><tspan x="0" y="0">M</tspan><tspan x="33.54" y="0" letter-spacing="-.02em">o</tspan><tspan x="55.43" y="0">vie App</tspan></text><path d="m15.66,28.15c-1.94-.76-4.75-9.91-3.15-11.05,1.6-1.14,10.98,1.46,11.57,3.16.73,2.07-6.48,8.66-8.42,7.89Z" stroke-width="0"/><path d="m28.87,10.24c2.96,1.88,4.76,5.59,5.05,10.44.23,3.87-.56,7.9-2.07,10.52-.04.07-.07.13-.11.19-1.36,2.1-3.76,3.66-7.14,4.64-3.13.91-6.32,1.09-8.45,1.09-3.47,0-6.66-.5-8.98-1.39h-.03c-3.94-1.58-6.29-5.29-7-11.05,0-.03,0-.05,0-.08-.29-2.9-.39-8.34,2.3-12.21l.04-.06c1.94-2.67,5.04-3.98,8.16-4.57l-5.12-3.97c-.44-.34-.73-.84-.8-1.4-.03-.27-.02-.55.06-.82.07-.27.2-.52.37-.74.34-.44.84-.73,1.4-.8.27-.03.55-.02.82.06.27.07.52.2.74.37.03.03.07.06.1.08l7.25,6.39,5.67-4.77c.47-.4,1.08-.59,1.69-.53.61.05,1.18.35,1.58.82.4.47.59,1.08.53,1.69-.05.61-.35,1.18-.82,1.58-.07.06-.16.12-.24.18l-2.89,1.86c3.07.48,5.9,1.34,7.75,2.43l.13.08Zm-12.72,22.77c5.03,0,10.42-1.2,12.15-3.86,2.24-3.89,2.39-12.9-1.63-15.45-2.21-1.29-6.71-2.3-11.06-2.3-4.1,0-7.85.9-9.59,3.31-1.59,2.29-2.16,6.02-1.81,9.46.42,3.44,1.53,6.58,4.43,7.72,1.88.73,4.63,1.11,7.5,1.11Z" fill-rule="evenodd" stroke-width="0"/></svg>